<mxfile host="Electron" modified="2023-11-23T10:17:27.462Z" agent="Mozilla/5.0 (X11; Linux x86_64) AppleWebKit/537.36 (KHTML, like Gecko) draw.io/22.1.2 Chrome/114.0.5735.289 Electron/25.9.4 Safari/537.36" etag="EnSNYpubL8MTrjAcM_nA" version="22.1.2" type="device">
  <diagram id="6qmla0ylQ88ybKYGIRtB" name="Seite-1">
    <mxGraphModel dx="794" dy="558" grid="1" gridSize="10" guides="1" tooltips="1" connect="1" arrows="1" fold="1" page="1" pageScale="1" pageWidth="827" pageHeight="1169" math="0" shadow="0">
      <root>
        <mxCell id="0" />
        <mxCell id="1" parent="0" />
        <mxCell id="U0qxjRxxlcd1XlXsWyBE-2" value="" style="whiteSpace=wrap;html=1;" parent="1" vertex="1">
          <mxGeometry x="200" y="100" width="410" height="350" as="geometry" />
        </mxCell>
        <mxCell id="U0qxjRxxlcd1XlXsWyBE-3" value="ULFX" style="text;html=1;strokeColor=none;fillColor=none;align=left;verticalAlign=middle;whiteSpace=wrap;rounded=0;" parent="1" vertex="1">
          <mxGeometry x="210" y="100" width="70" height="30" as="geometry" />
        </mxCell>
        <mxCell id="U0qxjRxxlcd1XlXsWyBE-4" value="Nutzeranmeldung mit Schulkonto" style="ellipse;whiteSpace=wrap;html=1;" parent="1" vertex="1">
          <mxGeometry x="430" y="390" width="170" height="50" as="geometry" />
        </mxCell>
        <mxCell id="U0qxjRxxlcd1XlXsWyBE-9" value="Nutzer/ &lt;br&gt;Schüler" style="shape=umlActor;verticalLabelPosition=bottom;verticalAlign=top;html=1;outlineConnect=0;" parent="1" vertex="1">
          <mxGeometry x="50" y="385" width="30" height="60" as="geometry" />
        </mxCell>
        <mxCell id="U0qxjRxxlcd1XlXsWyBE-10" value="" style="endArrow=none;html=1;rounded=0;exitX=0.5;exitY=0.5;exitDx=0;exitDy=0;exitPerimeter=0;entryX=0;entryY=0.5;entryDx=0;entryDy=0;" parent="1" source="U0qxjRxxlcd1XlXsWyBE-9" target="U0qxjRxxlcd1XlXsWyBE-4" edge="1">
          <mxGeometry width="50" height="50" relative="1" as="geometry">
            <mxPoint x="550" y="470" as="sourcePoint" />
            <mxPoint x="600" y="420" as="targetPoint" />
          </mxGeometry>
        </mxCell>
        <mxCell id="U0qxjRxxlcd1XlXsWyBE-11" value="" style="endArrow=none;html=1;rounded=0;entryX=0.5;entryY=0.5;entryDx=0;entryDy=0;entryPerimeter=0;exitX=0;exitY=0.5;exitDx=0;exitDy=0;" parent="1" source="U0qxjRxxlcd1XlXsWyBE-5" target="U0qxjRxxlcd1XlXsWyBE-9" edge="1">
          <mxGeometry width="50" height="50" relative="1" as="geometry">
            <mxPoint x="550" y="470" as="sourcePoint" />
            <mxPoint x="600" y="420" as="targetPoint" />
          </mxGeometry>
        </mxCell>
        <mxCell id="U0qxjRxxlcd1XlXsWyBE-12" value="" style="endArrow=none;html=1;rounded=0;exitX=0.5;exitY=0.5;exitDx=0;exitDy=0;exitPerimeter=0;entryX=0;entryY=0.5;entryDx=0;entryDy=0;" parent="1" source="U0qxjRxxlcd1XlXsWyBE-9" target="U0qxjRxxlcd1XlXsWyBE-6" edge="1">
          <mxGeometry width="50" height="50" relative="1" as="geometry">
            <mxPoint x="550" y="470" as="sourcePoint" />
            <mxPoint x="600" y="420" as="targetPoint" />
          </mxGeometry>
        </mxCell>
        <mxCell id="U0qxjRxxlcd1XlXsWyBE-13" value="" style="endArrow=none;html=1;rounded=0;exitX=0.5;exitY=0.5;exitDx=0;exitDy=0;exitPerimeter=0;entryX=0;entryY=0.5;entryDx=0;entryDy=0;" parent="1" source="U0qxjRxxlcd1XlXsWyBE-9" target="U0qxjRxxlcd1XlXsWyBE-7" edge="1">
          <mxGeometry width="50" height="50" relative="1" as="geometry">
            <mxPoint x="550" y="470" as="sourcePoint" />
            <mxPoint x="600" y="420" as="targetPoint" />
          </mxGeometry>
        </mxCell>
        <mxCell id="U0qxjRxxlcd1XlXsWyBE-14" value="" style="endArrow=none;html=1;rounded=0;entryX=0.5;entryY=0.5;entryDx=0;entryDy=0;entryPerimeter=0;exitX=0;exitY=0.5;exitDx=0;exitDy=0;" parent="1" source="U0qxjRxxlcd1XlXsWyBE-8" target="U0qxjRxxlcd1XlXsWyBE-9" edge="1">
          <mxGeometry width="50" height="50" relative="1" as="geometry">
            <mxPoint x="550" y="470" as="sourcePoint" />
            <mxPoint x="600" y="420" as="targetPoint" />
          </mxGeometry>
        </mxCell>
        <mxCell id="U0qxjRxxlcd1XlXsWyBE-15" value="" style="endArrow=classic;html=1;rounded=0;exitX=1;exitY=0.5;exitDx=0;exitDy=0;entryX=0.277;entryY=0.012;entryDx=0;entryDy=0;dashed=1;entryPerimeter=0;" parent="1" source="U0qxjRxxlcd1XlXsWyBE-5" target="U0qxjRxxlcd1XlXsWyBE-4" edge="1">
          <mxGeometry width="50" height="50" relative="1" as="geometry">
            <mxPoint x="550" y="490" as="sourcePoint" />
            <mxPoint x="600" y="440" as="targetPoint" />
          </mxGeometry>
        </mxCell>
        <mxCell id="U0qxjRxxlcd1XlXsWyBE-22" value="&amp;lt;&amp;lt;includes&amp;gt;&amp;gt;" style="edgeLabel;html=1;align=center;verticalAlign=middle;resizable=0;points=[];" parent="U0qxjRxxlcd1XlXsWyBE-15" vertex="1" connectable="0">
          <mxGeometry x="-0.1738" y="1" relative="1" as="geometry">
            <mxPoint x="46" y="68" as="offset" />
          </mxGeometry>
        </mxCell>
        <mxCell id="U0qxjRxxlcd1XlXsWyBE-16" value="" style="endArrow=classic;html=1;rounded=0;exitX=1;exitY=0.5;exitDx=0;exitDy=0;entryX=0.196;entryY=0.122;entryDx=0;entryDy=0;dashed=1;entryPerimeter=0;" parent="1" source="U0qxjRxxlcd1XlXsWyBE-6" target="U0qxjRxxlcd1XlXsWyBE-4" edge="1">
          <mxGeometry width="50" height="50" relative="1" as="geometry">
            <mxPoint x="390" y="235" as="sourcePoint" />
            <mxPoint x="509" y="200" as="targetPoint" />
          </mxGeometry>
        </mxCell>
        <mxCell id="U0qxjRxxlcd1XlXsWyBE-21" value="&amp;lt;&amp;lt;includes&amp;gt;" style="edgeLabel;html=1;align=center;verticalAlign=middle;resizable=0;points=[];" parent="U0qxjRxxlcd1XlXsWyBE-16" vertex="1" connectable="0">
          <mxGeometry x="0.237" y="-2" relative="1" as="geometry">
            <mxPoint x="-10" y="22" as="offset" />
          </mxGeometry>
        </mxCell>
        <mxCell id="U0qxjRxxlcd1XlXsWyBE-17" value="" style="endArrow=classic;html=1;rounded=0;exitX=1;exitY=0.5;exitDx=0;exitDy=0;dashed=1;entryX=0.119;entryY=0.15;entryDx=0;entryDy=0;entryPerimeter=0;" parent="1" source="U0qxjRxxlcd1XlXsWyBE-7" target="U0qxjRxxlcd1XlXsWyBE-4" edge="1">
          <mxGeometry width="50" height="50" relative="1" as="geometry">
            <mxPoint x="390" y="295" as="sourcePoint" />
            <mxPoint x="500" y="190" as="targetPoint" />
          </mxGeometry>
        </mxCell>
        <mxCell id="U0qxjRxxlcd1XlXsWyBE-20" value="&amp;lt;&amp;lt;includes&amp;gt;&amp;gt;" style="edgeLabel;html=1;align=center;verticalAlign=middle;resizable=0;points=[];" parent="U0qxjRxxlcd1XlXsWyBE-17" vertex="1" connectable="0">
          <mxGeometry x="-0.1696" y="1" relative="1" as="geometry">
            <mxPoint x="26" y="9" as="offset" />
          </mxGeometry>
        </mxCell>
        <mxCell id="U0qxjRxxlcd1XlXsWyBE-18" value="" style="endArrow=classic;html=1;rounded=0;exitX=1;exitY=0.5;exitDx=0;exitDy=0;dashed=1;entryX=0.058;entryY=0.26;entryDx=0;entryDy=0;entryPerimeter=0;" parent="1" source="U0qxjRxxlcd1XlXsWyBE-8" target="U0qxjRxxlcd1XlXsWyBE-4" edge="1">
          <mxGeometry width="50" height="50" relative="1" as="geometry">
            <mxPoint x="390" y="355" as="sourcePoint" />
            <mxPoint x="490" y="190" as="targetPoint" />
          </mxGeometry>
        </mxCell>
        <mxCell id="U0qxjRxxlcd1XlXsWyBE-19" value="&amp;lt;&amp;lt;includes&amp;gt;&amp;gt;" style="edgeLabel;html=1;align=center;verticalAlign=middle;resizable=0;points=[];" parent="U0qxjRxxlcd1XlXsWyBE-18" vertex="1" connectable="0">
          <mxGeometry x="-0.248" y="-2" relative="1" as="geometry">
            <mxPoint as="offset" />
          </mxGeometry>
        </mxCell>
        <mxCell id="U0qxjRxxlcd1XlXsWyBE-23" value="" style="whiteSpace=wrap;html=1;imageAspect=0;resizeWidth=1;resizeHeight=1;" parent="1" vertex="1">
          <mxGeometry x="640" y="470" width="130" height="50" as="geometry" />
        </mxCell>
        <mxCell id="U0qxjRxxlcd1XlXsWyBE-24" value="LDAP-Server der Schule" style="text;html=1;strokeColor=none;fillColor=none;align=center;verticalAlign=middle;whiteSpace=wrap;rounded=0;" parent="1" vertex="1">
          <mxGeometry x="640" y="470" width="130" height="50" as="geometry" />
        </mxCell>
        <mxCell id="U0qxjRxxlcd1XlXsWyBE-25" value="Nutzerdatenbank" style="whiteSpace=wrap;html=1;imageAspect=0;resizeWidth=1;resizeHeight=1;" parent="1" vertex="1">
          <mxGeometry x="640" y="530" width="130" height="240" as="geometry" />
        </mxCell>
        <mxCell id="U0qxjRxxlcd1XlXsWyBE-35" value="" style="whiteSpace=wrap;html=1;" parent="1" vertex="1">
          <mxGeometry x="200" y="470" width="415" height="390" as="geometry" />
        </mxCell>
        <mxCell id="U0qxjRxxlcd1XlXsWyBE-36" value="ULFX User-Management-Plattform (UMP)" style="text;html=1;strokeColor=none;fillColor=none;align=left;verticalAlign=middle;whiteSpace=wrap;rounded=0;" parent="1" vertex="1">
          <mxGeometry x="210" y="470" width="240" height="30" as="geometry" />
        </mxCell>
        <mxCell id="U0qxjRxxlcd1XlXsWyBE-37" value="Abrufen von Nutzerdaten" style="ellipse;whiteSpace=wrap;html=1;" parent="1" vertex="1">
          <mxGeometry x="430" y="555" width="170" height="50" as="geometry" />
        </mxCell>
        <mxCell id="U0qxjRxxlcd1XlXsWyBE-39" value="" style="endArrow=none;html=1;rounded=0;exitX=1;exitY=0.5;exitDx=0;exitDy=0;entryX=-0.002;entryY=0.209;entryDx=0;entryDy=0;entryPerimeter=0;" parent="1" source="U0qxjRxxlcd1XlXsWyBE-37" target="U0qxjRxxlcd1XlXsWyBE-25" edge="1">
          <mxGeometry width="50" height="50" relative="1" as="geometry">
            <mxPoint x="530" y="395" as="sourcePoint" />
            <mxPoint x="650" y="540" as="targetPoint" />
          </mxGeometry>
        </mxCell>
        <mxCell id="U0qxjRxxlcd1XlXsWyBE-5" value="Ansehen von Beiträgen anderer Nutzer" style="ellipse;whiteSpace=wrap;html=1;" parent="1" vertex="1">
          <mxGeometry x="210" y="130" width="170" height="50" as="geometry" />
        </mxCell>
        <mxCell id="U0qxjRxxlcd1XlXsWyBE-6" value="Hochladen von Textbeiträgen" style="ellipse;whiteSpace=wrap;html=1;" parent="1" vertex="1">
          <mxGeometry x="210" y="190" width="170" height="50" as="geometry" />
        </mxCell>
        <mxCell id="U0qxjRxxlcd1XlXsWyBE-7" value="Schreiben von Kommentaren" style="ellipse;whiteSpace=wrap;html=1;" parent="1" vertex="1">
          <mxGeometry x="210" y="250" width="170" height="50" as="geometry" />
        </mxCell>
        <mxCell id="U0qxjRxxlcd1XlXsWyBE-8" value="Abgeben von Bewertung" style="ellipse;whiteSpace=wrap;html=1;" parent="1" vertex="1">
          <mxGeometry x="210" y="310" width="170" height="50" as="geometry" />
        </mxCell>
        <mxCell id="U0qxjRxxlcd1XlXsWyBE-41" value="Setzen von Anzeigename, Beschreibung, etc" style="ellipse;whiteSpace=wrap;html=1;" parent="1" vertex="1">
          <mxGeometry x="430" y="650" width="170" height="50" as="geometry" />
        </mxCell>
        <mxCell id="U0qxjRxxlcd1XlXsWyBE-42" value="Setzen von Profilbild" style="ellipse;whiteSpace=wrap;html=1;" parent="1" vertex="1">
          <mxGeometry x="430" y="710" width="170" height="50" as="geometry" />
        </mxCell>
        <mxCell id="U0qxjRxxlcd1XlXsWyBE-43" value="Upload eines Bildes" style="ellipse;whiteSpace=wrap;html=1;" parent="1" vertex="1">
          <mxGeometry x="430" y="785" width="170" height="50" as="geometry" />
        </mxCell>
        <mxCell id="U0qxjRxxlcd1XlXsWyBE-44" value="Dateihost-Webserver" style="whiteSpace=wrap;html=1;imageAspect=0;resizeWidth=1;resizeHeight=1;" parent="1" vertex="1">
          <mxGeometry x="640" y="785" width="130" height="50" as="geometry" />
        </mxCell>
        <mxCell id="U0qxjRxxlcd1XlXsWyBE-46" value="" style="endArrow=classic;html=1;rounded=0;exitX=0.5;exitY=1;exitDx=0;exitDy=0;dashed=1;entryX=0.5;entryY=0;entryDx=0;entryDy=0;" parent="1" source="U0qxjRxxlcd1XlXsWyBE-42" target="U0qxjRxxlcd1XlXsWyBE-43" edge="1">
          <mxGeometry width="50" height="50" relative="1" as="geometry">
            <mxPoint x="509" y="105" as="sourcePoint" />
            <mxPoint x="509" y="375" as="targetPoint" />
          </mxGeometry>
        </mxCell>
        <mxCell id="U0qxjRxxlcd1XlXsWyBE-47" value="&amp;lt;&amp;lt;includes&amp;gt;&amp;gt;" style="edgeLabel;html=1;align=center;verticalAlign=middle;resizable=0;points=[];" parent="U0qxjRxxlcd1XlXsWyBE-46" vertex="1" connectable="0">
          <mxGeometry x="-0.248" y="-2" relative="1" as="geometry">
            <mxPoint x="47" as="offset" />
          </mxGeometry>
        </mxCell>
        <mxCell id="U0qxjRxxlcd1XlXsWyBE-48" value="" style="endArrow=classic;html=1;rounded=0;exitX=1;exitY=0.5;exitDx=0;exitDy=0;entryX=0;entryY=0.5;entryDx=0;entryDy=0;" parent="1" source="U0qxjRxxlcd1XlXsWyBE-43" target="U0qxjRxxlcd1XlXsWyBE-44" edge="1">
          <mxGeometry width="50" height="50" relative="1" as="geometry">
            <mxPoint x="530" y="495" as="sourcePoint" />
            <mxPoint x="580" y="445" as="targetPoint" />
          </mxGeometry>
        </mxCell>
        <mxCell id="U0qxjRxxlcd1XlXsWyBE-49" value="" style="endArrow=none;html=1;rounded=0;entryX=0.5;entryY=0.5;entryDx=0;entryDy=0;entryPerimeter=0;exitX=0;exitY=0.5;exitDx=0;exitDy=0;" parent="1" source="U0qxjRxxlcd1XlXsWyBE-41" target="U0qxjRxxlcd1XlXsWyBE-9" edge="1">
          <mxGeometry width="50" height="50" relative="1" as="geometry">
            <mxPoint x="530" y="570" as="sourcePoint" />
            <mxPoint x="580" y="520" as="targetPoint" />
          </mxGeometry>
        </mxCell>
        <mxCell id="U0qxjRxxlcd1XlXsWyBE-50" value="" style="endArrow=none;html=1;rounded=0;entryX=0.5;entryY=0.5;entryDx=0;entryDy=0;entryPerimeter=0;exitX=0;exitY=0.5;exitDx=0;exitDy=0;" parent="1" source="U0qxjRxxlcd1XlXsWyBE-42" target="U0qxjRxxlcd1XlXsWyBE-9" edge="1">
          <mxGeometry width="50" height="50" relative="1" as="geometry">
            <mxPoint x="530" y="570" as="sourcePoint" />
            <mxPoint x="580" y="520" as="targetPoint" />
          </mxGeometry>
        </mxCell>
        <mxCell id="U0qxjRxxlcd1XlXsWyBE-53" value="" style="endArrow=classic;html=1;rounded=0;exitX=1;exitY=0.5;exitDx=0;exitDy=0;entryX=0;entryY=0.604;entryDx=0;entryDy=0;entryPerimeter=0;" parent="1" source="U0qxjRxxlcd1XlXsWyBE-41" target="U0qxjRxxlcd1XlXsWyBE-25" edge="1">
          <mxGeometry width="50" height="50" relative="1" as="geometry">
            <mxPoint x="530" y="595" as="sourcePoint" />
            <mxPoint x="580" y="545" as="targetPoint" />
          </mxGeometry>
        </mxCell>
        <mxCell id="U0qxjRxxlcd1XlXsWyBE-54" value="" style="endArrow=classic;html=1;rounded=0;exitX=1;exitY=0.5;exitDx=0;exitDy=0;entryX=-0.005;entryY=0.855;entryDx=0;entryDy=0;entryPerimeter=0;" parent="1" source="U0qxjRxxlcd1XlXsWyBE-42" target="U0qxjRxxlcd1XlXsWyBE-25" edge="1">
          <mxGeometry width="50" height="50" relative="1" as="geometry">
            <mxPoint x="530" y="595" as="sourcePoint" />
            <mxPoint x="640" y="660" as="targetPoint" />
          </mxGeometry>
        </mxCell>
        <mxCell id="U0qxjRxxlcd1XlXsWyBE-56" value="Plattformdatenbank" style="whiteSpace=wrap;html=1;imageAspect=0;resizeWidth=1;resizeHeight=1;" parent="1" vertex="1">
          <mxGeometry x="640" y="100" width="130" height="170" as="geometry" />
        </mxCell>
        <mxCell id="U0qxjRxxlcd1XlXsWyBE-58" value="Plattform-Dateihost" style="whiteSpace=wrap;html=1;imageAspect=0;resizeWidth=1;resizeHeight=1;" parent="1" vertex="1">
          <mxGeometry x="640" y="280" width="130" height="170" as="geometry" />
        </mxCell>
        <mxCell id="U0qxjRxxlcd1XlXsWyBE-59" value="" style="endArrow=none;html=1;rounded=0;exitX=1;exitY=0.5;exitDx=0;exitDy=0;entryX=0;entryY=0.5;entryDx=0;entryDy=0;" parent="1" source="U0qxjRxxlcd1XlXsWyBE-6" target="U0qxjRxxlcd1XlXsWyBE-58" edge="1">
          <mxGeometry width="50" height="50" relative="1" as="geometry">
            <mxPoint x="410" y="410" as="sourcePoint" />
            <mxPoint x="460" y="360" as="targetPoint" />
          </mxGeometry>
        </mxCell>
        <mxCell id="U0qxjRxxlcd1XlXsWyBE-65" value="Nutzerauthentifizierung via Schullogin" style="ellipse;whiteSpace=wrap;html=1;" parent="1" vertex="1">
          <mxGeometry x="430" y="480" width="170" height="50" as="geometry" />
        </mxCell>
        <mxCell id="U0qxjRxxlcd1XlXsWyBE-66" value="" style="endArrow=classic;html=1;rounded=0;entryX=0.5;entryY=0;entryDx=0;entryDy=0;exitX=0.5;exitY=1;exitDx=0;exitDy=0;endFill=1;startArrow=classic;startFill=1;dashed=1;" parent="1" source="U0qxjRxxlcd1XlXsWyBE-4" target="U0qxjRxxlcd1XlXsWyBE-65" edge="1">
          <mxGeometry width="50" height="50" relative="1" as="geometry">
            <mxPoint x="410" y="550" as="sourcePoint" />
            <mxPoint x="460" y="500" as="targetPoint" />
          </mxGeometry>
        </mxCell>
        <mxCell id="U0qxjRxxlcd1XlXsWyBE-67" value="" style="endArrow=none;html=1;rounded=0;entryX=1;entryY=0.5;entryDx=0;entryDy=0;exitX=0.002;exitY=0.702;exitDx=0;exitDy=0;exitPerimeter=0;" parent="1" source="U0qxjRxxlcd1XlXsWyBE-24" target="U0qxjRxxlcd1XlXsWyBE-65" edge="1">
          <mxGeometry width="50" height="50" relative="1" as="geometry">
            <mxPoint x="410" y="570" as="sourcePoint" />
            <mxPoint x="460" y="520" as="targetPoint" />
          </mxGeometry>
        </mxCell>
        <mxCell id="U0qxjRxxlcd1XlXsWyBE-68" value="" style="endArrow=classic;html=1;rounded=0;exitX=0.5;exitY=1;exitDx=0;exitDy=0;dashed=1;entryX=0.5;entryY=0;entryDx=0;entryDy=0;" parent="1" edge="1">
          <mxGeometry width="50" height="50" relative="1" as="geometry">
            <mxPoint x="514.8" y="530" as="sourcePoint" />
            <mxPoint x="514.8" y="555" as="targetPoint" />
          </mxGeometry>
        </mxCell>
        <mxCell id="U0qxjRxxlcd1XlXsWyBE-69" value="&amp;lt;&amp;lt;includes&amp;gt;&amp;gt;" style="edgeLabel;html=1;align=center;verticalAlign=middle;resizable=0;points=[];" parent="U0qxjRxxlcd1XlXsWyBE-68" vertex="1" connectable="0">
          <mxGeometry x="-0.248" y="-2" relative="1" as="geometry">
            <mxPoint x="47" as="offset" />
          </mxGeometry>
        </mxCell>
        <mxCell id="U0qxjRxxlcd1XlXsWyBE-72" value="" style="endArrow=none;html=1;rounded=0;entryX=1;entryY=0.5;entryDx=0;entryDy=0;exitX=0;exitY=0.321;exitDx=0;exitDy=0;exitPerimeter=0;" parent="1" source="U0qxjRxxlcd1XlXsWyBE-56" target="U0qxjRxxlcd1XlXsWyBE-5" edge="1">
          <mxGeometry width="50" height="50" relative="1" as="geometry">
            <mxPoint x="320" y="330" as="sourcePoint" />
            <mxPoint x="370" y="280" as="targetPoint" />
          </mxGeometry>
        </mxCell>
        <mxCell id="U0qxjRxxlcd1XlXsWyBE-73" value="" style="endArrow=none;html=1;rounded=0;entryX=1;entryY=0.5;entryDx=0;entryDy=0;exitX=-0.004;exitY=0.321;exitDx=0;exitDy=0;exitPerimeter=0;" parent="1" source="U0qxjRxxlcd1XlXsWyBE-56" target="U0qxjRxxlcd1XlXsWyBE-6" edge="1">
          <mxGeometry width="50" height="50" relative="1" as="geometry">
            <mxPoint x="650" y="164.57000000000005" as="sourcePoint" />
            <mxPoint x="390" y="165" as="targetPoint" />
          </mxGeometry>
        </mxCell>
        <mxCell id="U0qxjRxxlcd1XlXsWyBE-74" value="" style="endArrow=none;html=1;rounded=0;entryX=1;entryY=0.5;entryDx=0;entryDy=0;exitX=-0.015;exitY=0.329;exitDx=0;exitDy=0;exitPerimeter=0;" parent="1" source="U0qxjRxxlcd1XlXsWyBE-56" target="U0qxjRxxlcd1XlXsWyBE-7" edge="1">
          <mxGeometry width="50" height="50" relative="1" as="geometry">
            <mxPoint x="649.48" y="164.57000000000005" as="sourcePoint" />
            <mxPoint x="390" y="225" as="targetPoint" />
          </mxGeometry>
        </mxCell>
        <mxCell id="U0qxjRxxlcd1XlXsWyBE-75" value="" style="endArrow=none;html=1;rounded=0;entryX=1;entryY=0.5;entryDx=0;entryDy=0;exitX=-0.004;exitY=0.329;exitDx=0;exitDy=0;exitPerimeter=0;" parent="1" source="U0qxjRxxlcd1XlXsWyBE-56" target="U0qxjRxxlcd1XlXsWyBE-8" edge="1">
          <mxGeometry width="50" height="50" relative="1" as="geometry">
            <mxPoint x="648.05" y="165.92999999999995" as="sourcePoint" />
            <mxPoint x="390" y="285" as="targetPoint" />
          </mxGeometry>
        </mxCell>
      </root>
    </mxGraphModel>
  </diagram>
</mxfile>
